<svg width="54" height="56" viewBox="0 0 54 56" fill="none" xmlns="http://www.w3.org/2000/svg">
<mask id="path-1-inside-1_138_113" fill="white">
<path d="M0 28C0 12.536 12.0883 0 27 0C41.9117 0 54 12.536 54 28C54 43.464 41.9117 56 27 56C12.0883 56 0 43.464 0 28Z"/>
<path d="M37.1231 26.347C39.0996 27.5315 39.1068 29.0216 37.1231 30.3608L21.7953 41.4782C19.8694 42.5835 18.5613 41.9309 18.424 39.5392L18.359 16.2708C18.3156 14.0677 20.003 13.4453 21.611 14.5016L37.1231 26.347Z"/>
</mask>
<path d="M0 28C0 12.536 12.0883 0 27 0C41.9117 0 54 12.536 54 28C54 43.464 41.9117 56 27 56C12.0883 56 0 43.464 0 28Z" fill="url(#paint0_linear_138_113)"/>
<path d="M37.1231 26.347C39.0996 27.5315 39.1068 29.0216 37.1231 30.3608L21.7953 41.4782C19.8694 42.5835 18.5613 41.9309 18.424 39.5392L18.359 16.2708C18.3156 14.0677 20.003 13.4453 21.611 14.5016L37.1231 26.347Z" fill="url(#paint1_linear_138_113)"/>
<path d="M37.1231 30.3608L36.004 28.7032L35.9761 28.7221L35.9488 28.7419L37.1231 30.3608ZM37.1231 26.347L35.9093 27.9365L35.9986 28.0047L36.0949 28.0625L37.1231 26.347ZM21.611 14.5016L22.8248 12.912L22.7684 12.8689L22.7091 12.83L21.611 14.5016ZM18.359 16.2708L20.359 16.2652L20.3589 16.2484L20.3586 16.2315L18.359 16.2708ZM18.424 39.5392L16.424 39.5447L16.4242 39.5993L16.4273 39.6538L18.424 39.5392ZM21.7953 41.4782L22.7908 43.2128L22.8832 43.1597L22.9695 43.0972L21.7953 41.4782ZM27 54C13.2608 54 2 42.4286 2 28H-2C-2 44.4994 10.9158 58 27 58V54ZM52 28C52 42.4286 40.7392 54 27 54V58C43.0842 58 56 44.4994 56 28H52ZM27 2C40.7392 2 52 13.5714 52 28H56C56 11.5006 43.0842 -2 27 -2V2ZM27 -2C10.9158 -2 -2 11.5006 -2 28H2C2 13.5714 13.2608 2 27 2V-2ZM38.2421 32.0185C39.4146 31.227 40.6104 29.9954 40.6082 28.2933C40.6059 26.5478 39.3561 25.3536 38.1512 24.6315L36.0949 28.0625C36.4443 28.2719 36.5932 28.4292 36.6411 28.4925C36.6757 28.5383 36.6084 28.4647 36.6082 28.2985C36.6079 28.1392 36.67 28.0893 36.6102 28.1732C36.5416 28.2692 36.3691 28.4568 36.004 28.7032L38.2421 32.0185ZM38.3369 24.7574L22.8248 12.912L20.3972 16.0911L35.9093 27.9365L38.3369 24.7574ZM22.7091 12.83C21.5338 12.0579 19.9481 11.6598 18.4941 12.3639C16.9521 13.1105 16.3278 14.7084 16.3594 16.3102L20.3586 16.2315C20.3527 15.9305 20.409 15.816 20.4087 15.8165C20.4079 15.8181 20.3949 15.8427 20.3617 15.876C20.3281 15.9097 20.2852 15.9408 20.2374 15.964C20.1369 16.0127 20.0847 15.9951 20.1307 16.0018C20.1812 16.0091 20.3155 16.0435 20.5129 16.1732L22.7091 12.83ZM16.359 16.2764L16.424 39.5447L20.424 39.5336L20.359 16.2652L16.359 16.2764ZM16.4273 39.6538C16.5086 41.0706 16.9674 42.7375 18.4699 43.5696C19.9848 44.4086 21.6216 43.8839 22.7908 43.2128L20.7997 39.7436C20.4631 39.9368 20.2631 39.9878 20.1907 39.9982C20.1376 40.0058 20.2468 39.9812 20.4079 40.0705C20.5672 40.1587 20.5937 40.2566 20.5601 40.1822C20.5192 40.0919 20.4458 39.8618 20.4207 39.4245L16.4273 39.6538ZM22.9695 43.0972L38.2973 31.9798L35.9488 28.7419L20.621 39.8592L22.9695 43.0972Z" fill="#B7E1F9" mask="url(#path-1-inside-1_138_113)"/>
<defs>
<linearGradient id="paint0_linear_138_113" x1="46.0588" y1="7.68627" x2="-1.69415" y2="54.2631" gradientUnits="userSpaceOnUse">
<stop stop-color="#1491D8"/>
<stop offset="0.646621" stop-color="#251DC4"/>
</linearGradient>
<linearGradient id="paint1_linear_138_113" x1="46.0588" y1="7.68627" x2="-1.69415" y2="54.2631" gradientUnits="userSpaceOnUse">
<stop stop-color="#1491D8"/>
<stop offset="0.646621" stop-color="#251DC4"/>
</linearGradient>
</defs>
</svg>
